<svg width="125" height="40" viewBox="0 0 125 40" fill="none" xmlns="http://www.w3.org/2000/svg">
<rect width="40" height="40" rx="20" fill="#2C4BFD"/>
<path d="M67.517 29V11.5455H71.2074V25.9574H78.6903V29H67.517ZM86.9808 29.2557C85.657 29.2557 84.5121 28.9744 83.5462 28.4119C82.5859 27.8437 81.8445 27.054 81.3217 26.0426C80.799 25.0256 80.5376 23.8466 80.5376 22.5057C80.5376 21.1534 80.799 19.9716 81.3217 18.9602C81.8445 17.9432 82.5859 17.1534 83.5462 16.5909C84.5121 16.0227 85.657 15.7386 86.9808 15.7386C88.3047 15.7386 89.4467 16.0227 90.407 16.5909C91.3729 17.1534 92.1172 17.9432 92.6399 18.9602C93.1626 19.9716 93.424 21.1534 93.424 22.5057C93.424 23.8466 93.1626 25.0256 92.6399 26.0426C92.1172 27.054 91.3729 27.8437 90.407 28.4119C89.4467 28.9744 88.3047 29.2557 86.9808 29.2557ZM86.9979 26.4432C87.6001 26.4432 88.103 26.2727 88.5064 25.9318C88.9098 25.5852 89.2138 25.1136 89.4183 24.517C89.6286 23.9205 89.7337 23.2415 89.7337 22.4801C89.7337 21.7188 89.6286 21.0398 89.4183 20.4432C89.2138 19.8466 88.9098 19.375 88.5064 19.0284C88.103 18.6818 87.6001 18.5085 86.9979 18.5085C86.3899 18.5085 85.8786 18.6818 85.4638 19.0284C85.0547 19.375 84.745 19.8466 84.5348 20.4432C84.3303 21.0398 84.228 21.7188 84.228 22.4801C84.228 23.2415 84.3303 23.9205 84.5348 24.517C84.745 25.1136 85.0547 25.5852 85.4638 25.9318C85.8786 26.2727 86.3899 26.4432 86.9979 26.4432ZM101.683 34.1818C100.506 34.1818 99.4979 34.0199 98.657 33.696C97.8217 33.3778 97.157 32.9432 96.6626 32.392C96.1683 31.8409 95.8473 31.2216 95.6996 30.5341L99.0575 30.0824C99.1598 30.3438 99.3217 30.5881 99.5433 30.8153C99.7649 31.0426 100.058 31.2244 100.421 31.3608C100.79 31.5028 101.239 31.5739 101.768 31.5739C102.558 31.5739 103.208 31.3807 103.719 30.9943C104.237 30.6136 104.495 29.9744 104.495 29.0767V26.6818H104.342C104.183 27.0455 103.944 27.3892 103.626 27.7131C103.308 28.0369 102.898 28.3011 102.398 28.5057C101.898 28.7102 101.302 28.8125 100.609 28.8125C99.6257 28.8125 98.7308 28.5852 97.924 28.1307C97.1229 27.6705 96.4837 26.9687 96.0064 26.0256C95.5348 25.0767 95.299 23.8778 95.299 22.429C95.299 20.946 95.5405 19.7074 96.0234 18.7131C96.5064 17.7187 97.1484 16.9744 97.9496 16.4801C98.7564 15.9858 99.6399 15.7386 100.6 15.7386C101.333 15.7386 101.947 15.8636 102.441 16.1136C102.935 16.358 103.333 16.6648 103.634 17.0341C103.941 17.3977 104.177 17.7557 104.342 18.108H104.478V15.9091H108.083V29.1278C108.083 30.2415 107.81 31.1733 107.265 31.9233C106.719 32.6733 105.964 33.2358 104.998 33.6108C104.038 33.9915 102.933 34.1818 101.683 34.1818ZM101.759 26.0852C102.344 26.0852 102.839 25.9403 103.242 25.6506C103.651 25.3551 103.964 24.9347 104.18 24.3892C104.401 23.8381 104.512 23.179 104.512 22.4119C104.512 21.6449 104.404 20.9801 104.188 20.4176C103.972 19.8494 103.66 19.4091 103.251 19.0966C102.842 18.7841 102.344 18.6278 101.759 18.6278C101.163 18.6278 100.66 18.7898 100.251 19.1136C99.8416 19.4318 99.532 19.875 99.3217 20.4432C99.1115 21.0114 99.0064 21.6676 99.0064 22.4119C99.0064 23.1676 99.1115 23.821 99.3217 24.3722C99.5376 24.9176 99.8473 25.3409 100.251 25.642C100.66 25.9375 101.163 26.0852 101.759 26.0852ZM116.887 29.2557C115.563 29.2557 114.418 28.9744 113.452 28.4119C112.492 27.8437 111.751 27.054 111.228 26.0426C110.705 25.0256 110.444 23.8466 110.444 22.5057C110.444 21.1534 110.705 19.9716 111.228 18.9602C111.751 17.9432 112.492 17.1534 113.452 16.5909C114.418 16.0227 115.563 15.7386 116.887 15.7386C118.211 15.7386 119.353 16.0227 120.313 16.5909C121.279 17.1534 122.023 17.9432 122.546 18.9602C123.069 19.9716 123.33 21.1534 123.33 22.5057C123.33 23.8466 123.069 25.0256 122.546 26.0426C122.023 27.054 121.279 27.8437 120.313 28.4119C119.353 28.9744 118.211 29.2557 116.887 29.2557ZM116.904 26.4432C117.506 26.4432 118.009 26.2727 118.413 25.9318C118.816 25.5852 119.12 25.1136 119.325 24.517C119.535 23.9205 119.64 23.2415 119.64 22.4801C119.64 21.7188 119.535 21.0398 119.325 20.4432C119.12 19.8466 118.816 19.375 118.413 19.0284C118.009 18.6818 117.506 18.5085 116.904 18.5085C116.296 18.5085 115.785 18.6818 115.37 19.0284C114.961 19.375 114.651 19.8466 114.441 20.4432C114.237 21.0398 114.134 21.7188 114.134 22.4801C114.134 23.2415 114.237 23.9205 114.441 24.517C114.651 25.1136 114.961 25.5852 115.37 25.9318C115.785 26.2727 116.296 26.4432 116.904 26.4432Z" fill="#292D32"/>
</svg>
